HIERARCHY
ROOT hip
{
  OFFSET 0 0 0
  CHANNELS 6 Xposition Yposition Zposition Zrotation Yrotation Xrotation
  JOINT abdomen
  {
    OFFSET 0 20.6881 -0.73152
    CHANNELS 3 Zrotation Xrotation Yrotation
    JOINT chest
    {
      OFFSET 0 11.7043 -0.48768
      CHANNELS 3 Zrotation Xrotation Yrotation
      JOINT neck
      {
        OFFSET 0 22.1894 -2.19456
        CHANNELS 3 Zrotation Xrotation Yrotation
        JOINT head
        {
          OFFSET -0.24384 7.07133 1.2192
          CHANNELS 3 Zrotation Xrotation Yrotation
          JOINT leftEye
          {
            OFFSET 4.14528 8.04674 8.04672
            CHANNELS 3 Zrotation Xrotation Yrotation
            End Site
            {
              OFFSET 1 0 0
            }
          }
          JOINT rightEye
          {
            OFFSET -3.6576 8.04674 8.04672
            CHANNELS 3 Zrotation Xrotation Yrotation
            End Site
            {
              OFFSET 1 0 0
            }
          }
        }
      }
      JOINT rCollar
      {
        OFFSET -2.68224 19.2634 -4.8768
        CHANNELS 3 Zrotation Xrotation Yrotation
        JOINT rShldr
        {
          OFFSET -8.77824 -1.95073 1.46304
          CHANNELS 3 Zrotation Xrotation Yrotation
          JOINT rForeArm
          {
            OFFSET -28.1742 -1.7115 0.48768
            CHANNELS 3 Zrotation Xrotation Yrotation
            JOINT rHand
            {
              OFFSET -22.5879 0.773209 7.07136
              CHANNELS 3 Zrotation Xrotation Yrotation
              JOINT rThumb1
              {
                OFFSET -1.2192 -0.487915 3.41376
                CHANNELS 3 Zrotation Xrotation Yrotation
                JOINT rThumb2
                {
                  OFFSET -3.37035 -0.52449 3.41376
                  CHANNELS 3 Zrotation Xrotation Yrotation
                  End Site
                  {
                    OFFSET -1.78271 -1.18214 1.43049
                  }
                }
              }
              JOINT rIndex1
              {
                OFFSET -7.75947 0.938293 5.60832
                CHANNELS 3 Zrotation Xrotation Yrotation
                JOINT rIndex2
                {
                  OFFSET -2.54057 -0.884171 1.56538
                  CHANNELS 3 Zrotation Xrotation Yrotation
                  End Site
                  {
                    OFFSET -1.62519 -0.234802 1.16502
                  }
                }
              }
              JOINT rMid1
              {
                OFFSET -8.24714 1.18213 3.41376
                CHANNELS 3 Zrotation Xrotation Yrotation
                JOINT rMid2
                {
                  OFFSET -3.10165 -0.590103 1.0647
                  CHANNELS 3 Zrotation Xrotation Yrotation
                  End Site
                  {
                    OFFSET -2.48547 -0.328903 0.83742
                  }
                }
              }
              JOINT rRing1
              {
                OFFSET -8.82822 0.546677 1.51678
                CHANNELS 3 Zrotation Xrotation Yrotation
                JOINT rRing2
                {
                  OFFSET -2.60934 -0.819778 -0.0198488
                  CHANNELS 3 Zrotation Xrotation Yrotation
                  End Site
                  {
                    OFFSET -2.33842 -0.294052 0.168128
                  }
                }
              }
              JOINT rPinky1
              {
                OFFSET -8.27202 -0.0477905 -0.4584
                CHANNELS 3 Zrotation Xrotation Yrotation
                JOINT rPinky2
                {
                  OFFSET -1.82734 -0.647385 -0.700984
                  CHANNELS 3 Zrotation Xrotation Yrotation
                  End Site
                  {
                    OFFSET -1.69225 -0.51767 -0.607171
                  }
                }
              }
            }
          }
        }
      }
      JOINT lCollar
      {
        OFFSET 2.68224 19.2634 -4.8768
        CHANNELS 3 Zrotation Xrotation Yrotation
        JOINT lShldr
        {
          OFFSET 8.77824 -1.95073 1.46304
          CHANNELS 3 Zrotation Xrotation Yrotation
          JOINT lForeArm
          {
            OFFSET 28.1742 -1.7115 0.48768
            CHANNELS 3 Zrotation Xrotation Yrotation
            JOINT lHand
            {
              OFFSET 22.5879 0.773209 7.07136
              CHANNELS 3 Zrotation Xrotation Yrotation
              JOINT lThumb1
              {
                OFFSET 1.2192 -0.487915 3.41376
                CHANNELS 3 Zrotation Xrotation Yrotation
                JOINT lThumb2
                {
                  OFFSET 3.37035 -0.52449 3.41376
                  CHANNELS 3 Zrotation Xrotation Yrotation
                  End Site
                  {
                    OFFSET 1.78271 -1.18214 1.43049
                  }
                }
              }
              JOINT lIndex1
              {
                OFFSET 7.75947 0.938293 5.60832
                CHANNELS 3 Zrotation Xrotation Yrotation
                JOINT lIndex2
                {
                  OFFSET 2.54057 -0.884171 1.56538
                  CHANNELS 3 Zrotation Xrotation Yrotation
                  End Site
                  {
                    OFFSET 1.62519 -0.234802 1.16502
                  }
                }
              }
              JOINT lMid1
              {
                OFFSET 8.24714 1.18213 3.41376
                CHANNELS 3 Zrotation Xrotation Yrotation
                JOINT lMid2
                {
                  OFFSET 3.10165 -0.590103 1.0647
                  CHANNELS 3 Zrotation Xrotation Yrotation
                  End Site
                  {
                    OFFSET 2.48547 -0.328903 0.83742
                  }
                }
              }
              JOINT lRing1
              {
                OFFSET 8.82822 0.546677 1.51678
                CHANNELS 3 Zrotation Xrotation Yrotation
                JOINT lRing2
                {
                  OFFSET 2.60934 -0.819778 -0.0198488
                  CHANNELS 3 Zrotation Xrotation Yrotation
                  End Site
                  {
                    OFFSET 2.33842 -0.294052 0.168128
                  }
                }
              }
              JOINT lPinky1
              {
                OFFSET 8.27202 -0.0477905 -0.4584
                CHANNELS 3 Zrotation Xrotation Yrotation
                JOINT lPinky2
                {
                  OFFSET 1.82734 -0.647385 -0.700984
                  CHANNELS 3 Zrotation Xrotation Yrotation
                  End Site
                  {
                    OFFSET 1.69225 -0.51767 -0.607171
                  }
                }
              }
            }
          }
        }
      }
    }
  }
  JOINT rButtock
  {
    OFFSET -8.77824 4.35084 1.2192
    CHANNELS 3 Zrotation Xrotation Yrotation
    JOINT rThigh
    {
      OFFSET 0 -1.70687 -2.19456
      CHANNELS 3 Zrotation Xrotation Yrotation
      JOINT rShin
      {
        OFFSET 0 -36.8199 0.73152
        CHANNELS 3 Zrotation Xrotation Yrotation
        JOINT rFoot
        {
          OFFSET 0.73152 -45.1104 -5.12064
          CHANNELS 3 Zrotation Xrotation Yrotation
          End Site
          {
            OFFSET -1.1221 -3.69964 12.103
          }
        }
      }
    }
  }
  JOINT lButtock
  {
    OFFSET 8.77824 4.35084 1.2192
    CHANNELS 3 Zrotation Xrotation Yrotation
    JOINT lThigh
    {
      OFFSET 0 -1.70687 -2.19456
      CHANNELS 3 Zrotation Xrotation Yrotation
      JOINT lShin
      {
        OFFSET 0 -36.8199 0.73152
        CHANNELS 3 Zrotation Xrotation Yrotation
        JOINT lFoot
        {
          OFFSET -0.73152 -45.1104 -5.12064
          CHANNELS 3 Zrotation Xrotation Yrotation
          End Site
          {
            OFFSET 1.1221 -3.69964 12.103
          }
        }
      }
    }
  }
}
MOTION
Frames:	5
Frame Time:	0.03333
0.0 0.0 0.0 0.0 0.0 0.0 0.0 0.0 0.0 0.0 0.0 0.0 0.0 0.0 0.0 0.0 0.0 0.0 0.0 0.0 0.0 0.0 0.0 0.0 0.0 0.0 0.0 0.0 0.0 0.0 0.0 0.0 0.0 0.0 0.0 0.0 0.0 0.0 0.0 0.0 0.0 0.0 0.0 0.0 0.0 0.0 0.0 0.0 0.0 0.0 0.0 0.0 0.0 0.0 0.0 0.0 0.0 0.0 0.0 0.0 0.0 0.0 0.0 0.0 0.0 0.0 0.0 0.0 0.0 0.0 0.0 0.0 0.0 0.0 0.0 0.0 0.0 0.0 0.0 0.0 0.0 0.0 0.0 0.0 0.0 0.0 0.0 0.0 0.0 0.0 0.0 0.0 0.0 0.0 0.0 0.0 0.0 0.0 0.0 0.0 0.0 0.0 0.0 0.0 0.0 0.0 0.0 0.0 0.0 0.0 0.0 0.0 0.0 0.0 0.0 0.0 0.0 0.0 0.0 0.0 0.0 0.0 0.0 0.0 0.0 0.0 0.0 0.0 0.0 0.0 0.0 0.0
-0.082 67.0501 -0.066 -175.389519 -28.663928 -179.686432 -0.267792 8.926234 1.727861 3.121276 -9.217482 -8.030971 10.873619 14.338438 75.93068 -21.812096 5.284249 -68.03459 0.001465 0.0 0.001667 0.001465 0.0 0.001667 -148.385409 27.107504 153.26737 74.39265 -19.317843 89.972791 -179.853292 41.383396 42.859666 -137.260023 35.135221 122.486607 -172.010965 -9.692226 89.944691 -3.06889 -52.698917 6.926257 159.876592 -69.894789 102.584259 -105.542117 47.883079 88.638139 11.021279 -34.390906 -3.263695 -3.031307 16.588515 3.139801 -0.000636 -0.197779 -0.061507 -11.210282 66.809176 24.046919 2.988717 8.368842 2.726308 7.85107 17.403225 4.452728 17.255415 -83.615462 38.182274 68.315458 -34.464057 148.0774 177.858714 -7.676699 144.099526 13.11215 62.430876 -9.949437 -4.89906 -4.882589 0.547399 128.467497 -20.869252 -115.300477 88.41296 41.478836 -74.180101 20.446288 34.363101 -8.442583 -4.956408 -15.337232 2.248857 159.847043 5.516219 -141.955162 145.049354 -3.762016 177.942565 79.53912 -77.915223 101.394995 150.219492 29.672116 146.085322 -2.222523 0.624773 1.744815 -179.996232 75.749565 -0.003915 164.031841 24.342142 149.422791 88.600033 -46.031336 -179.713733 154.904249 38.445789 -44.753545 -179.990133 75.750034 -0.006376 -152.843703 23.40612 11.315434 81.324169 56.967423 5.48339 175.204107 -4.485103 79.771751
-0.1164 66.9975 -0.0901 -175.329141 -28.909876 -179.883406 -0.238088 4.283609 178.212547 -3.492906 4.314725 175.145038 11.822607 17.460641 94.205536 -22.250344 12.918226 -85.284533 -0.000824 0.0 -0.001775 -0.000824 0.0 -0.001775 -3.634364 17.412348 4.485275 -91.634336 -24.163287 -153.288376 -22.620073 0.930052 -139.598296 -155.587864 8.187661 142.790653 98.749306 -51.21538 44.563874 -139.933374 17.320673 99.990602 9.705953 -17.110914 -4.401778 -7.187474 25.592309 7.635697 -157.319312 3.248558 141.457674 -170.542213 -26.596727 143.871958 -144.849092 -8.56027 -176.412401 11.042597 1.434433 -8.769867 -138.819641 -5.35544 -136.012663 -154.009926 32.973189 -145.59582 6.456706 26.816796 -7.696574 -63.600698 -2.396226 -88.353774 179.075895 7.819125 -108.760811 -135.942194 -50.136124 -128.364331 -175.743761 -21.378283 -88.462101 125.601681 18.826728 -62.818677 -8.571695 -15.014579 4.017441 -175.250539 -42.847949 -102.532245 38.605317 53.039327 -32.235183 -163.824445 -67.060558 -129.632289 145.034545 -4.312384 177.769813 156.149774 15.457718 -178.950929 75.306864 -51.693891 73.782509 -2.041683 -3.55657 2.042112 179.993359 75.749495 0.004978 163.928839 26.380524 30.255496 85.663768 72.716928 171.8192 34.309783 13.384764 85.981561 -179.999577 75.749495 -0.000516 -152.30016 23.356138 -14.929093 74.080997 84.216623 42.78268 -40.450407 10.909393 -114.038159
-0.1483 66.8875 -0.0944 -175.347944 -28.832391 -179.921463 -0.096871 4.39876 -178.908046 -3.136037 4.545389 172.163477 6.03114 9.53377 37.780954 -13.685724 -8.293565 -31.481807 -0.001656 -0.0 0.002959 0.003724 -0.0 -0.002348 -11.337609 38.262388 13.011777 76.461335 17.80346 -3.774505 -127.348431 -16.323584 43.641761 -163.084726 -15.429138 152.558479 -176.36894 -13.989962 89.712048 -8.618309 -51.361659 2.391547 -105.439518 35.698477 89.173612 178.070869 -38.689846 112.145409 17.517548 -50.764497 -1.911475 -171.850644 -30.149438 144.076185 -145.119333 0.2546 -179.20794 -141.950833 -56.36026 -164.102368 7.813509 24.391787 6.906251 -127.234633 -31.554997 -125.164423 158.430863 -29.551981 -166.828287 -97.395461 21.83965 91.573607 67.621796 49.725626 -86.206982 -4.775466 14.410674 -7.986655 178.69014 -16.226643 -89.45263 -88.441983 -71.196657 -67.778712 111.16529 32.586021 -94.072224 -17.045836 -19.259515 7.595078 4.754637 12.714997 -2.983287 17.919537 42.294064 -14.416959 145.123521 1.985884 179.752023 156.240888 8.584589 -179.734623 -1.789238 4.874761 -1.641702 106.94014 -47.424982 105.944194 179.996382 75.749071 0.004502 164.332653 24.327616 176.008399 84.425938 -72.728657 -173.929929 -97.138342 -78.291711 -14.866482 -179.999226 75.749071 0.001086 -153.282752 21.246256 151.265546 79.996836 -69.290214 167.740292 -176.398431 4.625934 -95.588345
-0.1949 66.8006 -0.0725 -175.389517 -28.780979 -179.93095 -0.322125 9.15019 2.552527 2.972781 -9.34532 -9.034147 -1.995069 27.852313 -150.719945 15.276965 29.878248 154.730133 0.000629 -0.0 -2.6e-05 0.000577 -0.0 -0.002832 -2.700523 13.634911 3.383666 -84.109598 -33.329184 -145.277377 172.513057 14.025392 -73.835513 -17.113627 -36.001972 -8.7104 -166.3059 -3.979356 89.744762 127.720179 -54.221236 88.811524 22.868457 -40.447219 -5.744426 130.062746 -62.946122 68.196934 -3.158556 8.712626 1.912266 10.235497 -21.460657 -1.565172 -145.121557 1.545153 -179.615639 11.248943 16.573546 -7.060015 23.891435 76.566295 11.964935 1.319077 -0.208944 -0.934537 158.565094 -31.419757 -167.169554 -94.422294 21.676763 87.930753 171.123665 -29.679794 -114.114375 -120.439726 -57.250948 -114.23137 168.300096 -5.977253 -89.879576 136.677556 8.63786 -67.810395 11.204342 15.774823 -7.322135 33.042003 40.42716 -22.884033 -1.466388 -4.369227 0.77427 -20.619408 -47.663938 -1.003553 141.245706 -33.316702 167.112458 -14.060622 30.824891 4.582644 155.955367 52.109928 149.914323 150.479391 18.557638 143.441363 -179.98171 75.748995 -0.014769 163.566279 26.326389 31.960656 77.043591 58.825679 -11.955727 -34.162533 14.790635 -69.440122 -179.995097 75.748995 -0.004356 -154.057707 22.204195 92.333814 86.358024 -10.308848 171.889724 132.95357 -64.493856 -162.795946
